PathFileType	4	(X/Y/Z)	C:/Git/opensim_tutorial/tutorials/repeated_sprinting/Simulations/PC013/markers.trc	
DataRate	CameraRate	NumFrames	NumMarkers	Units	OrigDataRate	OrigDataStartFrame	OrigNumFrames	
100.00	100.00	4	49	mm	100.00	2863	302	
Frame#	Time	RASIS			LASIS			RPSIS			LPSIS			RTH1			RTH2			RTH3			RTH4			LTH1			LTH2			LTH3			LTH4			RLK			LLK			RSK1			RSK2			RSK3			RSK4			LSK1			LSK2			LSK3			LSK4			RLA			RMA			RHEE			RPCA			RLCA			RSTL			RP1MT			RD1MT			RP5MT			RD5MT			RTOE			RHLX			LLA			LMA			LHEE			LPCA			LLCA			LSTL			LP1MT			LP5MT			LD5MT			LTOE			RAC			LAC			C7			STRN1			STRN2			
		X1	Y1	Z1	X2	Y2	Z2	X3	Y3	Z3	X4	Y4	Z4	X5	Y5	Z5	X6	Y6	Z6	X7	Y7	Z7	X8	Y8	Z8	X9	Y9	Z9	X10	Y10	Z10	X11	Y11	Z11	X12	Y12	Z12	X13	Y13	Z13	X14	Y14	Z14	X15	Y15	Z15	X16	Y16	Z16	X17	Y17	Z17	X18	Y18	Z18	X19	Y19	Z19	X20	Y20	Z20	X21	Y21	Z21	X22	Y22	Z22	X23	Y23	Z23	X24	Y24	Z24	X25	Y25	Z25	X26	Y26	Z26	X27	Y27	Z27	X28	Y28	Z28	X29	Y29	Z29	X30	Y30	Z30	X31	Y31	Z31	X32	Y32	Z32	X33	Y33	Z33	X34	Y34	Z34	X35	Y35	Z35	X36	Y36	Z36	X37	Y37	Z37	X38	Y38	Z38	X39	Y39	Z39	X40	Y40	Z40	X41	Y41	Z41	X42	Y42	Z42	X43	Y43	Z43	X44	Y44	Z44	X45	Y45	Z45	X46	Y46	Z46	X47	Y47	Z47	X48	Y48	Z48	X49	Y49	Z49	

76	0.750	367.53427	181.70116	805.70258	408.77399	-28.05099	826.59503	549.80353	160.69666	852.69232	569.74780	61.53986	859.14270	381.79099	190.73166	555.90442	374.36096	165.93729	500.35339	328.46979	141.72829	483.17337	326.34311	147.05081	547.26147	384.44458	-111.70460	611.18976	338.12048	-113.08218	546.22028	315.13089	-111.41199	599.87036	348.73611	-108.54778	647.84436	316.65182	96.40699	368.28543	243.44308	-115.81960	447.44391	488.66934	170.80153	235.74413	424.89648	162.85623	203.38020	471.71811	182.37129	200.55981	496.35324	189.72304	170.52292	356.93628	-97.74667	271.00369	323.63089	-99.56451	292.96588	330.06277	-111.69602	331.13010	361.27579	-99.13110	353.18350	544.63330	217.95062	84.46432	533.09119	137.65575	52.63472	619.23254	192.87003	51.03741	593.40839	181.52731	83.09400	578.00293	223.48409	56.57914	588.14777	156.92482	34.90960	481.86551	152.64735	41.94508	443.27945	153.82072	21.59816	522.03363	244.21721	32.04352	471.31125	256.55884	30.47227	451.57843	205.37598	55.39188	410.13766	159.84074	20.95429	478.00406	-65.25399	137.19690	420.11783	-6.39260	107.97444	515.62897	5.82403	126.69973	492.19391	-3.57017	150.16927	514.87628	-40.92065	119.60029	477.92538	16.92779	109.82040	389.28647	-48.96907	93.69788	474.20566	-99.16251	78.53246	442.31839	-135.97884	64.00579	388.38083	-103.60087	94.80224	399.09314	280.30731	1258.41736	504.19525	-43.02687	1299.32495	464.87027	131.76389	1335.37122	335.19092	94.18534	1263.56323	319.19370	75.11868	1211.22937 
77	0.760	362.46191	182.73682	804.66858	402.87320	-27.76866	827.14429	544.88666	160.60454	850.96893	564.59625	61.42097	857.71478	376.88586	190.96492	554.53223	369.56876	166.30942	499.09238	323.63577	142.06126	481.73453	321.48874	147.23688	545.82684	375.48392	-111.93049	612.06421	327.85590	-112.76630	548.06714	305.82721	-111.21455	602.43359	340.32516	-108.73006	649.44299	313.00836	97.27814	366.07690	231.15971	-115.76413	451.26740	486.54431	171.02177	235.56876	423.11172	163.07422	202.34383	470.16119	182.25961	199.65102	495.02420	189.56456	170.05338	339.28903	-98.81567	271.53857	306.63983	-100.17751	294.35236	313.96429	-112.59437	332.32831	345.74057	-100.29388	353.24496	544.43109	217.57803	84.79795	532.66510	137.40718	52.64558	619.10889	192.22971	51.71973	593.00903	180.90054	83.49547	577.97687	222.97688	57.14737	587.98163	156.40979	35.25505	481.81650	152.42812	41.91842	443.19455	153.93437	21.59995	522.18103	244.01921	32.18294	471.47037	256.59705	30.43185	451.53036	205.47209	55.31309	410.01834	160.08209	20.85817	457.26978	-67.81416	134.11617	399.22449	-8.34119	106.72650	495.28320	2.94844	122.94367	472.38467	-6.18357	146.89244	493.96072	-44.05270	115.86275	457.41943	14.35976	106.68336	367.46600	-50.56573	93.21938	451.45377	-101.73212	75.88604	418.96625	-138.27551	62.63482	366.01315	-105.29157	94.47465	392.10208	279.34579	1258.07922	498.95303	-43.41617	1298.62988	459.19254	131.23055	1334.55908	329.63495	93.11626	1262.15967	314.09830	73.93624	1209.90344 
78	0.770	357.36429	183.43028	803.81549	396.83923	-27.15462	827.25500	539.71014	160.55673	849.03650	559.10065	61.30849	856.18976	371.64505	191.35149	553.25995	364.53323	166.69215	497.86316	318.59952	142.18750	480.50052	316.55164	147.46454	544.67712	366.36655	-112.22987	612.93030	317.85968	-112.39246	549.74957	296.50662	-111.34580	604.11090	331.46399	-108.54004	650.98730	309.35446	98.10702	363.85818	218.97954	-115.54430	454.88602	484.45560	170.91782	235.03302	421.26007	163.38930	201.36740	468.62927	182.13524	199.20872	493.76349	189.28554	169.68784	321.86920	-100.06913	271.91925	289.88589	-100.95747	295.73361	298.08386	-113.43033	333.41034	330.65079	-101.55373	353.40219	544.21619	217.17648	85.08794	532.23364	137.14035	52.68682	618.97809	191.51741	52.43679	592.56390	180.13721	84.10112	577.99469	222.33090	57.92934	587.75122	155.93350	35.65131	481.48981	152.35007	41.77610	443.06082	153.79439	21.89002	522.32733	243.78569	32.36271	471.64334	256.61716	30.42594	451.52362	205.44595	55.14100	410.02087	160.19177	21.09681	436.14038	-70.61471	131.31023	378.14340	-10.34039	105.36809	474.81741	-0.33626	118.56510	452.46405	-9.14346	143.40286	472.62741	-47.17277	111.60735	436.89209	11.51870	103.29388	345.54456	-52.17081	92.67287	428.29532	-104.41594	72.92567	394.75180	-140.57063	60.74517	343.42590	-106.84073	94.00070	385.06607	278.15274	1257.67529	493.62543	-43.92107	1297.64429	453.53879	130.78268	1333.71423	324.10162	91.71046	1260.58960	309.04324	72.61539	1208.28137 
79	0.780	352.26022	184.20389	802.78680	390.48969	-25.55406	826.17047	535.06659	160.08185	847.15704	553.87250	61.01837	854.41870	366.47760	191.56952	552.08832	359.31363	167.07910	496.62180	313.56146	142.42523	479.19290	311.42828	147.46959	543.38123	357.21051	-112.49910	613.81641	307.98257	-112.25643	551.24988	286.96753	-110.73264	606.34705	323.25406	-108.66949	652.02399	305.63708	98.84364	361.75980	206.88623	-115.13036	457.98636	483.05820	170.31560	234.69016	419.60245	163.65105	200.24348	466.92438	181.93735	198.60176	492.39612	189.09190	169.51720	304.63110	-101.30962	272.10800	273.19824	-101.83227	296.90607	282.31607	-114.29285	334.50018	315.81128	-102.67670	353.29272	543.92731	216.70853	85.47830	531.74255	136.80466	52.55718	618.84564	190.75491	53.31179	592.09106	179.44344	84.64856	577.89545	221.79832	58.43688	587.39764	155.51003	35.95877	481.31094	152.19702	41.71792	442.94507	153.93611	21.89296	522.41266	243.51619	32.45964	471.83508	256.63953	30.42827	451.47388	205.57344	54.98721	409.94290	160.37102	21.20755	414.94843	-73.83490	127.98425	357.11877	-12.46609	103.68743	454.27185	-3.88560	114.05478	432.44016	-12.38524	139.31160	451.17615	-50.96216	107.29404	415.95096	8.54236	100.07457	323.56418	-53.59656	91.82725	404.69907	-107.13792	69.57819	370.28793	-142.53084	57.98263	320.48096	-108.25572	93.15504	377.92648	276.80606	1257.15649	488.13995	-44.72083	1296.67395	447.73553	129.99008	1332.65381	318.65598	90.06098	1258.92371	303.91336	71.16416	1206.51807 
